<?xml version="1.0" encoding="UTF-8"?>
<svg xmlns="http://www.w3.org/2000/svg" width="16" height="17" viewBox="0 0 16 17" fill="none">
  <path d="M9.73182 16.3862H3.97151C1.78192 16.3862 0 14.5945 0 12.3928V6.6008C0 4.39817 1.78192 2.60742 3.97151 2.60742H9.73182C11.9214 2.60742 13.7033 4.39916 13.7033 6.6008V12.3928C13.7033 14.5945 11.9214 16.3862 9.73182 16.3862ZM3.97151 4.03962C2.5668 4.03962 1.42436 5.18835 1.42436 6.6008V12.3928C1.42436 13.8043 2.5668 14.954 3.97151 14.954H9.73182C11.1365 14.954 12.279 13.8053 12.279 12.3928V6.6008C12.279 5.18835 11.1365 4.03962 9.73182 4.03962H3.97151Z" fill="white"></path>
  <path d="M6.47447 10.1285L1.16406 4.7839L2.17192 3.77148L6.52261 8.15007C6.7063 8.33478 7.00296 8.33577 7.18862 8.15205L11.5815 3.79223L12.5825 4.81156L7.223 10.1315C7.01573 10.3369 6.68174 10.3359 6.47644 10.1285" fill="white"></path>
  <path d="M16.0006 3.95539C16.0006 5.92788 14.4102 7.52602 12.4495 7.52602C10.4888 7.52602 8.89844 5.9269 8.89844 3.95539C8.89844 1.98389 10.4878 0.384766 12.4485 0.384766C14.4092 0.384766 15.9996 1.98389 15.9996 3.95539" fill="#EC1B2E"></path>
</svg>
