<?xml version="1.0" encoding="UTF-8"?>
<svg xmlns="http://www.w3.org/2000/svg" width="1456" height="921" viewBox="0 0 1456 921" fill="none">
  <path opacity="0.2" d="M1357.26 0.572213C1352.99 1.02951 1348.87 1.94409 1344.91 2.85869C993.544 70.8433 872.153 365.952 836.315 489.269C828.69 515.487 799.258 528.596 774.857 516.554C706.842 483.324 570.506 433.936 390.25 453.295C126.423 481.647 0 724.929 0 724.929L21.0451 920.042C21.0451 920.042 111.631 638.043 404.89 606.642C616.714 583.929 757.777 724.776 819.693 804.803C844.855 837.271 884.811 854.191 925.528 849.923C974.176 844.74 1009.71 802.212 1007.27 753.281C981.496 249.951 1376.32 177.851 1376.32 177.851C1425.27 172.515 1460.81 128.615 1455.47 79.6844C1450.13 30.7537 1406.21 -4.76291 1357.26 0.572213Z" fill="url(#paint0_linear_12519_11683)"></path>
  <defs>
    <linearGradient id="paint0_linear_12519_11683" x1="334.311" y1="721.366" x2="1548.96" y2="196.732" gradientUnits="userSpaceOnUse">
      <stop offset="0.0134869" stop-color="#6B8ED2" stop-opacity="0"></stop>
      <stop offset="0.43" stop-color="#5CBAFF"></stop>
      <stop offset="0.75" stop-color="#E759AE"></stop>
      <stop offset="0.99" stop-color="#F4475C"></stop>
    </linearGradient>
  </defs>
</svg>
