<?xml version="1.0" encoding="UTF-8"?>
<svg xmlns="http://www.w3.org/2000/svg" width="13" height="17" viewBox="0 0 13 17" fill="none">
  <g opacity="0.9" clip-path="url(#clip0_14388_4518)">
    <path d="M6.71686 16.0921C6.59636 16.2098 6.40319 16.2098 6.28174 16.0921L1.54708 11.4853L1.56429 11.4663C1.14734 10.9851 0.805941 10.447 0.546782 9.86237C0.204425 9.08792 0.0208151 8.26602 0.001689 7.41755C-0.0748153 4.08914 2.45652 1.20585 5.79211 0.853742C9.69192 0.442793 12.9988 3.47889 12.9988 7.2676C12.9988 8.16922 12.8143 9.04237 12.4518 9.86237C12.1917 10.4489 11.8503 10.987 11.4314 11.4701L11.4467 11.4872L10.9772 11.9484L6.71686 16.094V16.0921ZM3.46734 11.4255L6.30756 14.1892C6.41371 14.2927 6.58489 14.2927 6.69104 14.1892L9.53413 11.4226L9.52648 11.4141L10.0132 10.9538C11.0719 9.96012 11.6418 8.60769 11.6112 7.1575C11.5567 4.5447 9.45954 2.36942 6.83161 2.20428C3.78579 2.01256 1.25923 4.48396 1.39216 7.49537C1.45145 8.83642 2.07018 10.0939 3.0523 11.0164L3.47785 11.416L3.46734 11.4274V11.4255Z" fill="white"></path>
    <path d="M9.96096 7.41138C9.96096 9.30668 8.4127 10.8423 6.50392 10.8423C4.59513 10.8423 3.04688 9.30573 3.04688 7.41138C3.04688 5.51702 4.59513 3.98047 6.50392 3.98047C8.4127 3.98047 9.96096 5.51702 9.96096 7.41138Z" fill="#EC1B2E"></path>
  </g>
  <defs>
    <clipPath id="clip0_14388_4518">
      <rect width="13" height="15.3636" fill="white" transform="translate(0 0.816406)"></rect>
    </clipPath>
  </defs>
</svg>
