<?xml version="1.0" encoding="UTF-8"?>
<svg xmlns="http://www.w3.org/2000/svg" width="15" height="16" viewBox="0 0 15 16" fill="none">
  <path d="M15 4.00098C15 6.21066 13.2086 8.00098 11 8.00098C8.79142 8.00098 7 6.20955 7 4.00098C7 1.7924 8.79142 0.000976562 11 0.000976562C13.2086 0.000976562 15 1.7924 15 4.00098Z" fill="#EC1B2E"></path>
  <path d="M9.89704 15.1924C9.54991 15.1924 9.19408 15.1728 8.83063 15.1325C6.53351 14.8801 4.41376 13.8855 2.86094 12.3305C1.30812 10.7766 0.313536 8.65579 0.0599929 6.35868C-0.168522 4.28465 0.265658 2.41954 1.19387 1.48698C1.60193 1.07239 1.73469 0.939636 2.13731 0.542457C2.55843 0.127867 3.43876 0.0331971 3.95999 0.523958L5.50192 1.89722C5.87516 2.22911 6.09715 2.70572 6.1113 3.20519C6.12653 3.70466 5.93175 4.19324 5.57918 4.54689L4.91975 5.20741C4.47578 5.65138 4.62051 6.83312 6.4878 8.7015C7.31263 9.52632 8.09938 10.0987 8.76425 10.3555C9.55317 10.6602 9.85024 10.3979 9.96777 10.2815L10.4596 9.74722C10.7893 9.38922 11.2387 9.18355 11.7252 9.16723C12.2116 9.152 12.673 9.32828 13.0255 9.66452L14.6425 11.2108C15.1192 11.7059 15.1192 12.5492 14.6425 13.0531C14.401 13.3088 14.0865 13.6233 13.7078 13.9889C12.9352 14.7571 11.5293 15.1891 9.89704 15.1891M3.0666 1.84499C2.79782 2.1105 2.65201 2.2574 2.31686 2.598L2.3125 2.60235C1.84459 3.07135 1.43 4.39237 1.62804 6.18784C1.75209 7.313 2.22219 9.46212 3.97631 11.2173C5.73044 12.9725 7.87848 13.4426 9.00256 13.5656C10.2616 13.7038 11.9232 13.546 12.5957 12.8724L12.6055 12.8626C12.8873 12.5917 13.13 12.3512 13.3302 12.1455L11.933 10.8114C11.8775 10.7592 11.8166 10.7494 11.7741 10.7505C11.7317 10.7516 11.6707 10.7657 11.6196 10.8212L11.094 11.3914C10.1147 12.3708 8.85783 12.0879 8.19514 11.8332C7.31372 11.4926 6.36375 10.8169 5.37026 9.8223C4.37676 8.82772 3.70101 7.87667 3.36041 6.99526C3.10469 6.33257 2.82285 5.07574 3.80221 4.09639L4.46163 3.43588C4.52692 3.37059 4.53454 3.29551 4.53345 3.25633C4.53237 3.21716 4.5204 3.14208 4.45184 3.08114L3.06552 1.84716L3.0666 1.84499Z" fill="white"></path>
</svg>
