<?xml version="1.0" encoding="UTF-8"?>
<svg xmlns="http://www.w3.org/2000/svg" width="94" height="89" viewBox="0 0 94 89" fill="none">
  <circle cx="25.451" cy="31.4295" r="24.951" fill="#F4475C"></circle>
  <g clip-path="url(#clip0_14219_1996)">
    <path d="M71.1291 76.8382V71.1348C71.1291 68.1095 69.9199 65.2082 67.7674 63.069C65.615 60.9298 62.6956 59.728 59.6515 59.728H36.6963C33.6523 59.728 30.7329 60.9298 28.5805 63.069C26.428 65.2082 25.2188 68.1095 25.2188 71.1348V76.8382" stroke="#2A2B6B" stroke-width="5" stroke-linecap="round" stroke-linejoin="round"></path>
    <path d="M48.1729 53.6529C54.5118 53.6529 59.6505 48.5459 59.6505 42.2461C59.6505 35.9463 54.5118 30.8394 48.1729 30.8394C41.834 30.8394 36.6953 35.9463 36.6953 42.2461C36.6953 48.5459 41.834 53.6529 48.1729 53.6529Z" stroke="#2A2B6B" stroke-width="5" stroke-linecap="round" stroke-linejoin="round"></path>
    <path d="M88.3426 76.8385V71.1352C88.3407 68.6078 87.4942 66.1526 85.9362 64.1551C84.3781 62.1576 82.1967 60.731 79.7344 60.0991" stroke="#2A2B6B" stroke-width="5" stroke-linecap="round" stroke-linejoin="round"></path>
    <path d="M68.2578 31.21C70.7267 31.8382 72.915 33.2652 74.4776 35.2659C76.0403 37.2667 76.8885 39.7275 76.8885 42.2602C76.8885 44.793 76.0403 47.2538 74.4776 49.2545C72.915 51.2553 70.7267 52.6823 68.2578 53.3105" stroke="#2A2B6B" stroke-width="5" stroke-linecap="round" stroke-linejoin="round"></path>
  </g>
  <defs>
    <clipPath id="clip0_14219_1996">
      <rect width="68.8656" height="58.0256" fill="white" transform="translate(22.3516 27.3677)"></rect>
    </clipPath>
  </defs>
</svg>
